<?xml version="1.0" encoding="UTF-8"?>
<svg id="Layer_1" xmlns="http://www.w3.org/2000/svg" viewBox="0 0 176 176">
  <defs>
    <style>
      .cls-1 {
        fill: #747c51;
      }
    </style>
  </defs>
  <rect class="cls-1" width="176" height="176" rx="26.42" ry="26.42"/>
  <path d="M36.72,163.22v-.43c1.86-.86,3.4-3.58,4.62-8.17,1.22-4.58,1.83-9.74,1.83-15.47V36.85c0-5.73-.61-10.89-1.83-15.47-1.22-4.58-2.76-7.31-4.62-8.17v-.43h55.88c13.18,0,24.35,4.37,33.53,13.11,9.17,8.74,13.75,19.42,13.75,32.02s-4.59,23.28-13.75,32.02c-9.17,8.74-20.35,13.11-33.53,13.11h-32.24v36.1c0,5.73.61,10.89,1.83,15.47,1.22,4.59,2.76,7.31,4.62,8.17v.43h-30.09ZM92.6,88c8.74,0,16.15-2.9,22.24-8.7,6.09-5.8,9.13-12.93,9.13-21.38s-3.01-15.58-9.03-21.38c-6.02-5.8-13.47-8.7-22.35-8.7h-31.59c-.43,3.01-.65,6.02-.65,9.03v51.15h32.24Z"/>
</svg>